<svg width="46" height="46" viewBox="0 0 46 46" fill="none" xmlns="http://www.w3.org/2000/svg">
<path d="M23 25.2987C24.3761 25.2987 25.7208 25.71 26.8613 26.48C28.0018 27.25 28.886 28.3434 29.4003 29.6197C29.9146 30.896 30.0355 32.2969 29.7475 33.6425C29.4595 34.9881 28.7757 36.2168 27.784 37.1707L23.391 41.3956H29.9V45.9954H16.1L16.0977 42.0304L24.5939 33.8543C24.868 33.5908 25.0726 33.2634 25.1892 32.9015C25.3058 32.5396 25.3308 32.1545 25.2621 31.7805C25.1934 31.4065 25.033 31.0554 24.7953 30.7586C24.5576 30.4618 24.25 30.2286 23.9001 30.0798C23.5502 29.931 23.1688 29.8713 22.7902 29.9059C22.4115 29.9406 22.0474 30.0687 21.7303 30.2786C21.4132 30.4885 21.1532 30.7737 20.9734 31.1087C20.7936 31.4438 20.6996 31.8182 20.7 32.1984H16.1C16.1 30.3685 16.827 28.6135 18.121 27.3196C19.415 26.0257 21.17 25.2987 23 25.2987ZM36.8 25.2987V34.4983H41.4V25.2987H46V45.9977H41.4V39.098H32.2V25.2987H36.8ZM4.6 22.9989C4.598 25.7576 5.21721 28.4814 6.41169 30.9682C7.60618 33.455 9.34529 35.641 11.5 37.3639V42.9205C8.00297 40.9015 5.09912 37.9976 3.08041 34.5006C1.0617 31.0035 -0.000704638 27.0367 3.50631e-07 22.9989H4.6ZM23 2.88694e-06C34.9255 2.88694e-06 44.7327 9.07535 45.885 20.699H41.2574C40.7903 16.9903 39.2047 13.5119 36.7118 10.7265C34.2188 7.94121 30.9366 5.98112 27.3021 5.10712C23.6676 4.23312 19.8531 4.48667 16.3662 5.83401C12.8794 7.18136 9.88555 9.5586 7.7832 12.6494H13.8V17.2491H3.50631e-07V3.44983H4.6V9.19724C6.74114 6.33955 9.51891 4.02022 12.7129 2.42333C15.9068 0.826427 19.429 -0.00178451 23 2.88694e-06Z" fill="white"/>
</svg>
