<svg width="180" height="43" viewBox="0 0 180 43" fill="none" xmlns="http://www.w3.org/2000/svg">
<g clip-path="url(#clip0_55_343)">
<path d="M53.0958 33.2183L61.2829 9.78305H65.8444L74.0315 33.2183H70.0634L68.3137 27.9646H58.8455L57.0334 33.2183H53.0958ZM59.9075 24.6621H67.1879L63.0632 12.3945H64.0947L59.9075 24.6621Z" fill="white"/>
<path d="M81.718 33.5952C80.1143 33.5952 78.6713 33.2022 77.3902 32.4151C76.1091 31.6292 75.0988 30.564 74.3594 29.2222C73.6199 27.8804 73.2495 26.3701 73.2495 24.6929C73.2495 23.0156 73.6186 21.5053 74.3594 20.1635C75.0988 18.8217 76.1091 17.7619 77.3902 16.9867C78.6713 16.2115 80.113 15.8226 81.718 15.8226C83.0509 15.8226 84.243 16.0953 85.2958 16.6405C86.3472 17.1858 87.1756 17.9409 87.7797 18.9059L87.2168 19.7238V9.40617H90.7481V33.2196H87.3734V29.7595L87.7797 30.4197C87.1969 31.4474 86.3685 32.2333 85.2958 32.7786C84.2231 33.3239 83.031 33.5965 81.718 33.5965V33.5952ZM82.0937 30.2927C83.0721 30.2927 83.947 30.0522 84.7183 29.5697C85.4883 29.0872 86.0976 28.4216 86.5464 27.5716C86.9937 26.723 87.2181 25.7634 87.2181 24.6929C87.2181 23.6223 86.9937 22.6948 86.5464 21.8462C86.0976 20.9961 85.4883 20.3319 84.7183 19.8481C83.947 19.3656 83.0721 19.1251 82.0937 19.1251C81.1153 19.1251 80.2298 19.3723 79.4373 19.8641C78.646 20.3573 78.0314 21.0175 77.5933 21.8462C77.1565 22.6748 76.9375 23.6237 76.9375 24.6929C76.9375 25.762 77.1565 26.7216 77.5933 27.5716C78.0314 28.4216 78.6394 29.0872 79.4213 29.5697C80.2019 30.0522 81.0927 30.2927 82.0924 30.2927H82.0937Z" fill="white"/>
<path d="M99.0294 33.5952C97.7589 33.5952 96.6384 33.3065 95.6707 32.7305C94.7015 32.1544 93.9568 31.3459 93.4364 30.3088C92.916 29.2703 92.6558 28.0701 92.6558 26.7069V16.2008H96.1871V26.3929C96.1871 27.1694 96.3437 27.851 96.6557 28.4377C96.9677 29.0244 97.4058 29.4815 97.9673 29.8062C98.5302 30.131 99.1754 30.2941 99.9042 30.2941C100.633 30.2941 101.31 30.127 101.873 29.7902C102.436 29.4547 102.873 28.983 103.186 28.3749C103.498 27.7668 103.655 27.0531 103.655 26.2365V16.2022H107.186V33.2196H103.811V29.8851L104.217 30.3248C103.822 31.394 103.159 32.2079 102.233 32.7625C101.306 33.3185 100.237 33.5965 99.0307 33.5965L99.0294 33.5952Z" fill="white"/>
<path d="M114.497 33.5952C113.351 33.5952 112.346 33.396 111.482 32.9978C110.618 32.5995 109.946 32.0328 109.467 31.2991C108.988 30.5654 108.749 29.706 108.749 28.7197C108.749 27.7975 108.952 26.9689 109.358 26.2352C109.764 25.5014 110.389 24.8826 111.232 24.3788C112.075 23.8749 113.155 23.5194 114.466 23.3096L120.341 22.334V25.1646L115.154 26.0454C114.217 26.2138 113.529 26.5172 113.092 26.9582C112.654 27.3979 112.437 27.9445 112.437 28.5941C112.437 29.2436 112.681 29.7742 113.171 30.1831C113.661 30.5921 114.29 30.7966 115.061 30.7966C115.998 30.7966 116.827 30.5867 117.545 30.1671C118.263 29.7474 118.826 29.1875 119.232 28.4845C119.639 27.7815 119.842 27.001 119.842 26.1403V21.7673C119.842 20.9494 119.53 20.2731 118.904 19.7385C118.279 19.2039 117.456 18.9366 116.436 18.9366C115.519 18.9366 114.712 19.1785 114.015 19.6597C113.317 20.1421 112.802 20.7823 112.468 21.5789L109.5 20.1007C109.833 19.2627 110.348 18.517 111.047 17.8674C111.744 17.2179 112.567 16.7141 113.514 16.3572C114.462 16.0004 115.478 15.8226 116.561 15.8226C117.894 15.8226 119.077 16.0739 120.107 16.5777C121.139 17.0816 121.941 17.7779 122.513 18.6693C123.085 19.5608 123.372 20.5939 123.372 21.7673V33.2169H119.997V30.1658L120.685 30.2286C120.289 30.9209 119.789 31.5183 119.184 32.0221C118.58 32.526 117.882 32.9136 117.091 33.1862C116.3 33.4589 115.435 33.5952 114.497 33.5952Z" fill="white"/>
<path d="M125.619 33.2183V16.2008H128.994V19.5354L128.588 19.0943C129.004 18.0251 129.671 17.2126 130.587 16.6566C131.503 16.1006 132.566 15.8226 133.774 15.8226C134.982 15.8226 136.128 16.0953 137.087 16.6405C138.045 17.1858 138.795 17.9409 139.337 18.9059C139.878 19.8708 140.149 20.9814 140.149 22.2404V33.2183H136.618V23.184C136.618 22.346 136.461 21.627 136.149 21.0296C135.837 20.4322 135.399 19.9657 134.836 19.6303C134.274 19.2948 133.628 19.1264 132.899 19.1264C132.171 19.1264 131.519 19.2948 130.947 19.6303C130.373 19.9657 129.931 20.4322 129.619 21.0296C129.307 21.627 129.15 22.346 129.15 23.184V33.2183H125.619Z" fill="white"/>
<path d="M142.056 33.2183V9.40483H145.587V25.3531L144.212 25.0069L152.648 16.1995H157.085L150.71 23.0263L157.365 33.2183H153.272L147.367 24.1903L149.461 23.907L144.461 29.2543L145.586 26.8954V33.2183H142.054H142.056Z" fill="white"/>
<path d="M163.929 33.5952C162.658 33.5952 161.538 33.3065 160.57 32.7305C159.601 32.1544 158.856 31.3459 158.336 30.3088C157.815 29.2703 157.555 28.0701 157.555 26.7069V16.2008H161.086V26.3929C161.086 27.1694 161.243 27.851 161.555 28.4377C161.867 29.0244 162.305 29.4815 162.867 29.8062C163.429 30.131 164.075 30.2941 164.803 30.2941C165.532 30.2941 166.209 30.127 166.772 29.7902C167.335 29.4547 167.772 28.983 168.085 28.3749C168.397 27.7668 168.554 27.0531 168.554 26.2365V16.2022H172.085V33.2196H168.71V29.8851L169.117 30.3248C168.721 31.394 168.059 32.2079 167.132 32.7625C166.205 33.3185 165.137 33.5965 163.93 33.5965L163.929 33.5952Z" fill="white"/>
<path d="M0 0V43H42.7129V0H0ZM37.9019 38.7339L31.3875 36.9765C28.5041 38.8743 25.059 39.9782 21.3565 39.9782C11.2192 39.9782 3.00162 31.7054 3.00162 21.5C3.00162 11.2946 11.2192 3.02179 21.3565 3.02179C31.4937 3.02179 39.7113 11.2946 39.7113 21.5C39.7113 25.5602 38.4103 29.3131 36.2052 32.3629L37.9005 38.7353L37.9019 38.7339Z" fill="white"/>
<path d="M177.569 32.0208C178.911 32.0208 179.999 30.9258 179.999 29.575C179.999 28.2243 178.911 27.1293 177.569 27.1293C176.227 27.1293 175.14 28.2243 175.14 29.575C175.14 30.9258 176.227 32.0208 177.569 32.0208Z" fill="white"/>
</g>
<defs>
<clipPath id="clip0_55_343">
<rect width="180" height="43" fill="white"/>
</clipPath>
</defs>
</svg>
