<svg width="38" height="38" viewBox="0 0 38 38" fill="none" xmlns="http://www.w3.org/2000/svg">
<path d="M3.65385 1.82692C3.65385 1.34239 3.46137 0.877708 3.11875 0.535093C2.77614 0.192479 2.31145 0 1.82692 0C1.34239 0 0.877708 0.192479 0.535093 0.535093C0.192479 0.877708 0 1.34239 0 1.82692V31.7885C0 33.4359 0.654428 35.0158 1.81932 36.1807C2.98421 37.3456 4.56414 38 6.21154 38H36.1731C36.6576 38 37.1223 37.8075 37.4649 37.4649C37.8075 37.1223 38 36.6576 38 36.1731C38 35.6885 37.8075 35.2239 37.4649 34.8812C37.1223 34.5386 36.6576 34.3462 36.1731 34.3462H6.21154C5.5332 34.3462 4.88264 34.0767 4.40298 33.597C3.92332 33.1174 3.65385 32.4668 3.65385 31.7885V1.82692ZM6.21154 32.1538H33.6154V8.76923C33.6154 8.49781 33.5398 8.23174 33.3971 8.00085C33.2544 7.76997 33.0502 7.58338 32.8075 7.46199C32.5647 7.34061 32.2929 7.28922 32.0226 7.3136C31.7523 7.33797 31.4941 7.43714 31.2769 7.6L20.3066 15.8285L12.3456 11.8472C12.1559 11.7524 11.9478 11.7 11.7358 11.6937C11.5238 11.6874 11.313 11.7273 11.1179 11.8107L5.84615 14.0688V31.7885C5.84615 31.9902 6.00985 32.1538 6.21154 32.1538Z" fill="white"/>
</svg>
